# AST/ASF file generated using VICON BodyLanguage
# -----------------------------------------------
:version 1.10
:name VICON
:units
  mass 1.0
  length 0.45
  angle deg
:documentation
   .ast/.asf automatically generated from VICON data using
   VICON BodyBuilder and BodyLanguage model FoxedUp or BRILLIANT.MOD
:root
   order TX TY TZ RX RY RZ
   axis XYZ
   position 0 0 0  
   orientation 0 0 0 
:bonedata
  begin
     id 1 
     name lhipjoint
     direction 0.537252 -0.787203 0.302774 
     length 2.29576 
     axis 0 0 0  XYZ
  end
  begin
     id 2 
     name lfemur
     direction 0.34202 -0.939693 0  
     length 7.31114  
     axis 0 0 20  XYZ
    dof rx ry rz
    limits (-160.0 20.0)
           (-70.0 70.0)
           (-60.0 70.0)
  end
  begin
     id 3 
     name ltibia
     direction 0.34202 -0.939693 0   
     length 8.36008   
     axis 0 0 20   XYZ
    dof rx
    limits (-10.0 170.0)
  end
  begin
     id 4 
     name lfoot
     direction 0.0969116 -0.266263 0.959016   
     length 2.16704   
     axis -90 7.62852e-016 20   XYZ
    dof rx rz
    limits (-45.0 90.0)
           (-70.0 20.0)
  end
  begin
     id 5 
     name ltoes
     direction 1.53563e-011 -4.21779e-011 1   
     length 1.08338   
     axis -90 7.62852e-016 20   XYZ
    dof rx
    limits (-90.0 20.0)
  end
  begin
     id 6 
     name rhipjoint
     direction -0.588228 -0.754791 0.290308   
     length 2.39434  
     axis 0 0 0  XYZ 
  end
  begin
     id 7 
     name rfemur
     direction -0.34202 -0.939693 0   
     length 7.45207   
     axis 0 0 -20   XYZ
    dof rx ry rz
    limits (-160.0 20.0)
           (-70.0 70.0)
           (-70.0 60.0)
  end
  begin
     id 8 
     name rtibia
     direction -0.34202 -0.939693 0   
     length 8.03565   
     axis 0 0 -20   XYZ
    dof rx
    limits (-10.0 170.0)
 end
 begin
     id 9 
     name rfoot
     direction -0.107009 -0.294004 0.949795   
     length 2.11509  
     axis -90 -7.62852e-016 -20   XYZ
    dof rx rz
    limits (-45.0 90.0)
           (-20.0 70.0)
  end
  begin
     id 10 
     name rtoes
     direction -1.53533e-011 -4.22004e-011 1   
     length 1.05493   
     axis -90 -7.62852e-016 -20   XYZ
    dof rx
    limits (-90.0 20.0)
  end
  begin
     id 11 
     name lowerback
     direction -0.0115208 0.997969 -0.0626515   
     length 2.03153   
     axis 0 0 0   XYZ
    dof rx ry rz
    limits (-20.0 45.0)
           (-30.0 30.0)
           (-30.0 30.0)
  end
  begin
     id 12 
     name upperback
     direction -0.00423475 0.999974 -0.00583614   
     length 2.03619   
     axis 0 0 0   XYZ
    dof rx ry rz
    limits (-20.0 45.0)
           (-30.0 30.0)
           (-30.0 30.0)
  end
  begin
     id 13 
     name thorax
     direction 0.00289429 0.999728 0.0231573   
     length 2.03921   
     axis 0 0 0   XYZ
    dof rx ry rz
    limits (-20.0 45.0)
           (-30.0 30.0)
           (-30.0 30.0)
  end
  begin
     id 14 
     name lowerneck
     direction 0.0188995 0.987777 0.154721   
     length 1.78836   
     axis 0 0 0   XYZ
    dof rx ry rz
    limits (-20.0 45.0)
           (-30.0 30.0)
           (-30.0 30.0)
  end
  begin
     id 15 
     name upperneck
     direction -0.00612612 0.992995 -0.118   
     length 1.81789   
     axis 0 0 0   XYZ
    dof rx ry rz
    limits (-20.0 45.0)
           (-30.0 30.0)
           (-30.0 30.0)
  end
  begin
     id 16
     name head
     direction -0.00420226 0.998397 -0.0564482  
     length 1.82234  
     axis 0 0 0   XYZ
    dof rx ry rz
    limits (-20.0 45.0)
           (-30.0 30.0)
           (-30.0 30.0)
  end
  begin
     id 17 
     name lclavicle
     direction 0.916488 0.396539 0.0529676  
     length 3.51732  
     axis 0 0 0   XYZ
    dof ry rz
    limits (-20.0 10.0)
           (0.0 20.0)
  end
  begin
     id 18 
     name lhumerus
     direction 1 -4.4896e-011 8.36962e-028   
     length 5.45077   
     axis 180 -30 -90   XYZ
    dof rx ry rz
    limits (-60.0 90.0)
           (-90.0 90.0)
           (-90.0 90.0)
  end
  begin
     id 19
     name lradius
     direction 1 -4.48962e-011 3.01407e-027   
     length 3.05488   
     axis 180 -30 -90   XYZ
    dof rx
    limits (-10.0 170.0)
  end
  begin
     id 20
     name lwrist
     direction 1 -4.49002e-011 4.72961e-027   
     length 1.52744   
     axis -2.72261e-015 90 90   XYZ
    dof ry
    limits (-180.0 0.0)
 end
  begin
     id 21 
     name lhand
     direction 1 -4.4899e-011 9.45681e-027   
     length 0.638818   
     axis -6.0311e-015 90 90   XYZ
    dof rx rz
    limits (-90.0 90.0)
           (-45.0 45.0)
  end
  begin
     id 22 
     name lfingers
     direction 1 -4.48871e-011 1.88632e-026   
     length 0.515032   
     axis -1.20625e-014 90 90   XYZ
    dof rx
    limits (0.0 90.0)
  end
  begin
     id 23
     name lthumb
     direction 0.707107 -6.34964e-011 0.707107   
     length 0.739485   
     axis -90 45 6.32835e-014   XYZ
    dof rx rz
    limits (-45.0 45.0)
           (-45.0 45.0)
  end
  begin
     id 24 
     name rclavicle
     direction -0.949427 0.303202 0.0815894   
     length 3.76167  
     axis 0 0 0   XYZ 
    dof ry rz
    limits (-10.0 20.0)
           (-20.0 0.0)
  end
  begin
     id 25 
     name rhumerus
     direction -1 -4.48971e-011 -6.43969e-018  
     length 4.88702   
     axis 180 30 90   XYZ
    dof rx ry rz
    limits (-90.0 60.0)
           (-90.0 90.0)
           (-90.0 90.0)
  end
  begin
     id 26 
     name rradius
     direction -1 -4.48987e-011 5.46662e-027   
     length 3.22603   
     axis 180 30 90   XYZ
    dof rx
    limits (-10.0 170.0)
  end
  begin
     id 27 
     name rwrist
     direction -1 -4.48956e-011 4.72476e-027   
     length 1.61302   
     axis -2.72261e-015 -90 -90   XYZ
    dof ry
    limits (-180.0 0.0)
  end
  begin
     id 28
     name rhand
     direction -1 -4.4889e-011 9.43571e-027   
     length 0.716293   
     axis -6.0311e-015 -90 -90   XYZ
    dof rx rz
    limits (-90.0 90.0)
           (-45.0 45.0)
  end
  begin
     id 29
     name rfingers
     direction -1 -4.48887e-011 1.88701e-026   
     length 0.577494   
     axis -1.20625e-014 -90 -90   XYZ
    dof rx
    limits (0.0 90.0)
  end
  begin
     id 30
     name rthumb
     direction -0.707107 -6.34825e-011 0.707107   
     length 0.829169   
     axis -90 -45 -6.32835e-014   XYZ
    dof rx rz
    limits (-45.0 45.0)
           (-45.0 45.0)
  end
:hierarchy
  begin
    root lhipjoint rhipjoint lowerback
    lhipjoint lfemur
    lfemur ltibia
    ltibia lfoot
    lfoot ltoes
    rhipjoint rfemur
    rfemur rtibia
    rtibia rfoot
    rfoot rtoes
    lowerback upperback
    upperback thorax
    thorax lowerneck lclavicle rclavicle
    lowerneck upperneck
    upperneck head
    lclavicle lhumerus
    lhumerus lradius
    lradius lwrist
    lwrist lhand lthumb
    lhand lfingers
    rclavicle rhumerus
    rhumerus rradius
    rradius rwrist
    rwrist rhand rthumb
    rhand rfingers
  end

#!OML:ASF F:\VICON\USERDATA\INSTALL\rory3\rory3.ASF
:FULLY-SPECIFIED
:DEGREES
464
root 1.73934 18.4532 0.331831 175.953 86.75 166.322
lowerback -8.63128 -1.21525 -0.088975
upperback -3.32545 -1.50405 -0.231378
thorax 1.39232 -0.709099 -0.33242
lowerneck -20.3685 0.370491 2.83379
upperneck 12.0591 -0.048915 -1.44442
head 7.00478 -0.0235267 -0.935784
rclavicle 1.14161e-014 -2.88238e-015
rhumerus -37.0981 -0.915862 -76.5918
rradius 79.9237
rwrist -227.008
rhand -30.1062 1.99301
rfingers 7.12502
rthumb -3.42005 -27.9593
lclavicle 1.14161e-014 -2.88238e-015
lhumerus -36.8871 -8.20439 75.7739
lradius 78.6203
lwrist 248.329
lhand -28.0369 -44.2414
lfingers 7.12502
lthumb -1.4216 -14.2664
rfemur -1.33263 -4.59193 15.1908
rtibia -1.59028e-015
rfoot -8.23526 1.86744
rtoes -9.42993
lfemur -11.7789 10.2151 -17.4354
ltibia 18.4447
lfoot -15.4429 -1.80178
ltoes -22.9117
465
root 1.73352 18.455 0.330952 175.095 86.7167 165.405
lowerback -8.6562 -1.2414 -0.142354
upperback -3.3054 -1.53461 -0.241166
thorax 1.42776 -0.72426 -0.316331
lowerneck -20.2777 0.385228 2.86085
upperneck 11.9646 -0.045361 -1.37642
head 6.95905 -0.0142734 -0.916808
rclavicle 1.96533e-015 6.65929e-015
rhumerus -36.9967 -0.931055 -76.5645
rradius 79.932
rwrist -226.837
rhand -30.107 2.04752
rfingers 7.12502
rthumb -3.42079 -27.9048
lclavicle 1.96533e-015 6.65929e-015
lhumerus -36.7565 -8.08491 75.7056
lradius 78.5478
lwrist 248.226
lhand -27.9331 -43.8339
lfingers 7.12502
lthumb -1.32134 -13.8582
rfemur -1.41306 -4.62653 15.13
rtibia -1.59028e-015
rfoot -8.19052 1.87181
rtoes -9.08018
lfemur -11.8441 10.0839 -17.5087
ltibia 18.4299
lfoot -15.4341 -1.70862
ltoes -22.6708
466
root 1.72751 18.456 0.328532 175.427 86.6499 165.674
lowerback -8.6692 -1.26486 -0.096055
upperback -3.30082 -1.5694 -0.247254
thorax 1.43807 -0.741902 -0.352304
lowerneck -20.1811 0.388391 2.89001
upperneck 11.8581 -0.0525957 -1.33851
head 6.90826 -0.0130899 -0.909274
rclavicle 3.81346e-014 1.36913e-014
rhumerus -36.8971 -0.976919 -76.5375
rradius 79.8928
rwrist -226.74
rhand -30.0581 1.88989
rfingers 7.12502
rthumb -3.37357 -28.0632
lclavicle 3.81346e-014 1.36913e-014
lhumerus -36.6428 -7.97804 75.6403
lradius 78.54
lwrist 248.143
lhand -28.0621 -43.831
lfingers 7.12502
lthumb -1.44594 -13.8561
rfemur -1.4922 -4.70016 15.1363
rtibia -1.43125e-014
rfoot -8.20244 1.86448
rtoes -9.32279
lfemur -11.9194 9.98087 -17.5283
ltibia 18.3881
lfoot -15.3752 -1.69181
ltoes -22.4646
467
root 1.72175 18.4573 0.328716 175.059 86.5995 165.273
lowerback -8.63666 -1.27728 -0.108672
upperback -3.29694 -1.58482 -0.270311
thorax 1.42375 -0.749804 -0.369772
lowerneck -20.1809 0.3812 2.87745
upperneck 11.8531 -0.071076 -1.264
head 6.90624 -0.0154954 -0.884942
rclavicle -1.08208e-014 -1.10574e-015
rhumerus -36.8344 -1.07206 -76.5111
rradius 79.8374
rwrist -226.709
rhand -30.0313 1.82257
rfingers 7.12502
rthumb -3.34771 -28.1309
lclavicle -1.08208e-014 -1.10574e-015
lhumerus -36.5065 -7.929 75.5605
lradius 78.5083
lwrist 248.085
lhand -28.1915 -43.5076
lfingers 7.12502
lthumb -1.57089 -13.5336
rfemur -1.54957 -4.75126 15.1056
rtibia 4.77083e-015
rfoot -8.2265 1.83479
rtoes -10.0655
lfemur -11.9861 10.0357 -17.5888
ltibia 18.3525
lfoot -15.2704 -1.75044
ltoes -22.557
468
root 1.71646 18.4586 0.329586 174.074 86.5852 164.284
lowerback -8.59244 -1.27316 -0.158429
upperback -3.26321 -1.5763 -0.299734
thorax 1.4348 -0.746049 -0.3708
lowerneck -20.1861 0.340754 2.86497
upperneck 11.8303 -0.131931 -1.20503
head 6.8984 -0.0398121 -0.870547
rclavicle 1.52086e-014 8.19987e-016
rhumerus -36.6971 -1.21155 -76.4726
rradius 79.7326
rwrist -226.659
rhand -30.1336 1.92019
rfingers 7.12502
rthumb -3.44648 -28.0317
lclavicle 1.52086e-014 8.19987e-016
lhumerus -36.3086 -7.8412 75.4704
lradius 78.4505
lwrist 247.991
lhand -28.2449 -43.5634
lfingers 7.12502
lthumb -1.62246 -13.5898
rfemur -1.57364 -4.76048 15.0403
rtibia 9.54166e-015
rfoot -8.15849 1.81602
rtoes -9.97554
lfemur -12.0024 10.11 -17.6678
ltibia 18.3206
lfoot -15.234 -1.79903
ltoes -22.639
469
root 1.71506 18.459 0.32819 174.342 86.5745 164.548
lowerback -8.59572 -1.2595 -0.121942
upperback -3.22228 -1.56231 -0.305653
thorax 1.47776 -0.739832 -0.396666
lowerneck -20.1868 0.313628 2.90464
upperneck 11.7728 -0.181005 -1.19448
head 6.87862 -0.06078 -0.878882
rclavicle -2.05862e-014 -1.05107e-014
rhumerus -36.5954 -1.36027 -76.4312
rradius 79.6631
rwrist -226.553
rhand -30.1933 2.00358
rfingers 7.12502
rthumb -3.50413 -27.9474
lclavicle -2.05862e-014 -1.05107e-014
lhumerus -36.1764 -7.68107 75.4124
lradius 78.4391
lwrist 247.802
lhand -28.336 -43.7993
lfingers 7.12502
lthumb -1.71046 -13.8264
rfemur -1.57484 -4.77342 15.0512
rtibia -3.18055e-015
rfoot -8.16126 1.81347
rtoes -9.66655
lfemur -11.9769 10.1416 -17.6567
ltibia 18.2781
lfoot -15.2441 -1.86935
ltoes -22.3615
470
root 1.70733 18.4602 0.32816 173.793 86.4531 163.958
lowerback -8.53621 -1.29527 -0.185493
upperback -3.22062 -1.60504 -0.320353
thorax 1.4478 -0.761125 -0.378916
lowerneck -20.1872 0.316953 2.88592
upperneck 11.7269 -0.185464 -1.10726
head 6.86372 -0.0557865 -0.84762
rclavicle 1.5101e-015 -3.65267e-015
rhumerus -36.5371 -1.49549 -76.3853
rradius 79.6079
rwrist -226.495
rhand -30.2284 2.01727
rfingers 7.12502
rthumb -3.53802 -27.9331
lclavicle 1.5101e-015 -3.65267e-015
lhumerus -36.128 -7.46475 75.336
lradius 78.4602
lwrist 247.529
lhand -28.5346 -43.8508
lfingers 7.12502
lthumb -1.90225 -13.8795
rfemur -1.62064 -4.89411 14.9969
rtibia -7.95139e-015
rfoot -8.13085 1.87062
rtoes -9.69046
lfemur -12.0659 10.1423 -17.7355
ltibia 18.2618
lfoot -15.1589 -1.96303
ltoes -22.3683
471
root 1.70034 18.4613 0.326175 172.87 86.4843 162.941
lowerback -8.57868 -1.28026 -0.206459
upperback -3.21813 -1.58237 -0.343478
thorax 1.4738 -0.749642 -0.389816
lowerneck -20.143 0.305423 2.87277
upperneck 11.6585 -0.208104 -1.03149
head 6.83383 -0.0604655 -0.822944
rclavicle 1.31871e-014 3.52843e-015
rhumerus -36.434 -1.5781 -76.3691
rradius 79.5207
rwrist -226.45
rhand -30.0473 2.01145
rfingers 7.12502
rthumb -3.36315 -27.9418
lclavicle 1.31871e-014 3.52843e-015
lhumerus -36.025 -7.26904 75.2325
lradius 78.4227
lwrist 247.184
lhand -28.3294 -43.6177
lfingers 7.12502
lthumb -1.70403 -13.6448
rfemur -1.76612 -4.86469 14.9366
rtibia 6.36111e-015
rfoot -8.0642 1.86312
rtoes -9.83617
lfemur -12.1952 10.1706 -17.8387
ltibia 18.2513
lfoot -15.1085 -1.88795
ltoes -22.6961
472
root 1.69372 18.4636 0.325881 172.186 86.5119 162.221
lowerback -8.54825 -1.26055 -0.23532
upperback -3.21675 -1.55407 -0.35385
thorax 1.45907 -0.735564 -0.380902
lowerneck -20.0244 0.280572 2.86662
upperneck 11.5534 -0.24285 -0.988425
head 6.77954 -0.0739578 -0.811208
rclavicle 3.79642e-015 5.889e-015
rhumerus -36.3765 -1.68786 -76.3128
rradius 79.4426
rwrist -226.43
rhand -29.728 1.90334
rfingers 7.12502
rthumb -3.05478 -28.0545
lclavicle 3.79642e-015 5.889e-015
lhumerus -35.9458 -7.16576 75.188
lradius 78.4459
lwrist 247.062
lhand -27.7818 -43.3515
lfingers 7.12502
lthumb -1.1752 -13.375
rfemur -1.83761 -4.83465 14.8988
rtibia 6.36111e-015
rfoot -8.02246 1.82186
rtoes -10.1866
lfemur -12.2344 10.2051 -17.899
ltibia 18.2214
lfoot -15.0751 -1.87607
ltoes -22.8104
473
root 1.68723 18.464 0.328881 171.358 86.44 161.386
lowerback -8.47084 -1.27596 -0.33651
upperback -3.21511 -1.56697 -0.373789
thorax 1.42023 -0.741837 -0.34416
lowerneck -20.043 0.258606 2.80281
upperneck 11.5899 -0.278682 -0.845831
head 6.79416 -0.0805031 -0.758608
rclavicle -2.12829e-014 -7.1811e-015
rhumerus -36.3945 -1.77531 -76.2956
rradius 79.4311
rwrist -226.382
rhand -29.4487 1.65029
rfingers 7.12502
rthumb -2.78507 -28.3113
lclavicle -2.12829e-014 -7.1811e-015
lhumerus -35.8671 -7.10871 75.1597
lradius 78.4663
lwrist 247.093
lhand -28.3429 -43.4454
lfingers 7.12502
lthumb -1.71707 -13.4726
rfemur -1.84241 -4.89809 14.8448
rtibia 1.59028e-015
rfoot -7.99705 1.77223
rtoes -9.94048
lfemur -12.2668 10.2003 -17.9739
ltibia 18.1836
lfoot -15.0276 -1.89792
ltoes -23.0458
474
root 1.6786 18.4652 0.329862 170.277 86.3692 160.299
lowerback -8.35258 -1.30066 -0.433974
upperback -3.21098 -1.59354 -0.392044
thorax 1.36137 -0.755115 -0.308119
lowerneck -20.1101 0.252019 2.70117
upperneck 11.6129 -0.288917 -0.677621
head 6.81297 -0.074152 -0.688647
rclavicle 1.36894e-014 1.25234e-014
rhumerus -36.3689 -1.84338 -76.2736
rradius 79.4248
rwrist -226.29
rhand -29.2953 1.55341
rfingers 7.12502
rthumb -2.63689 -28.41
lclavicle 1.36894e-014 1.25234e-014
lhumerus -35.751 -6.96462 75.0977
lradius 78.4192
lwrist 246.875
lhand -29.1663 -43.4773
lfingers 7.12502
lthumb -2.51228 -13.5123
rfemur -1.85891 -4.9578 14.7594
rtibia 1.59028e-015
rfoot -7.9653 1.7624
rtoes -9.75122
lfemur -12.3163 10.2336 -18.0844
ltibia 18.1531
lfoot -14.9441 -1.89918
ltoes -23.5808
475
root 1.67176 18.4658 0.327596 169.133 86.3463 159.132
lowerback -8.29772 -1.29775 -0.460637
upperback -3.2031 -1.58784 -0.428795
thorax 1.33893 -0.752557 -0.329294
lowerneck -20.0526 0.236212 2.6417
upperneck 11.5102 -0.310348 -0.560249
head 6.77003 -0.0768661 -0.642752
rclavicle 8.23782e-015 5.66536e-015
rhumerus -36.3371 -1.95706 -76.2364
rradius 79.4011
rwrist -226.258
rhand -29.3594 1.70453
rfingers 7.12502
rthumb -2.69885 -28.2581
lclavicle 8.23782e-015 5.66536e-015
lhumerus -35.6449 -6.82914 75.0329
lradius 78.3659
lwrist 246.69
lhand -29.1639 -43.3659
lfingers 7.12502
lthumb -2.51003 -13.401
rfemur -1.90758 -4.97051 14.6642
rtibia 6.36111e-015
rfoot -7.94901 1.76603
rtoes -9.82139
lfemur -12.339 10.1993 -18.1931
ltibia 18.1178
lfoot -14.8855 -1.83637
ltoes -23.4775
476
root 1.66776 18.4674 0.326017 168.884 86.3229 158.836
lowerback -8.3162 -1.30194 -0.464698
upperback -3.19435 -1.59307 -0.426864
thorax 1.35831 -0.755212 -0.326075
lowerneck -19.9634 0.216864 2.59277
upperneck 11.4034 -0.33005 -0.495294
head 6.72056 -0.0833049 -0.615467
rclavicle 8.88867e-015 5.09386e-015
rhumerus -36.2958 -2.04127 -76.1646
rradius 79.3551
rwrist -226.212
rhand -29.4155 1.75217
rfingers 7.12502
rthumb -2.75295 -28.2098
lclavicle 8.88867e-015 5.09386e-015
lhumerus -35.5881 -6.7135 75.0172
lradius 78.3558
lwrist 246.649
lhand -28.9737 -43.2687
lfingers 7.12502
lthumb -2.32631 -13.3016
rfemur -1.97768 -4.99472 14.6369
rtibia -3.18055e-015
rfoot -7.91015 1.74857
rtoes -9.52268
lfemur -12.4127 10.2574 -18.2471
ltibia 18.1344
lfoot -14.8395 -1.89504
ltoes -23.3297
477
root 1.66668 18.4669 0.325479 169.671 86.3849 159.564
lowerback -8.38506 -1.27843 -0.397401
upperback -3.18007 -1.56703 -0.407206
thorax 1.40981 -0.742514 -0.34294
lowerneck -20.009 0.20199 2.54758
upperneck 11.4632 -0.358289 -0.377447
head 6.74747 -0.0874378 -0.573195
rclavicle -2.67794e-015 6.95746e-015
rhumerus -36.2714 -2.12974 -76.1252
rradius 79.3257
rwrist -226.197
rhand -29.4618 1.70318
rfingers 7.12502
rthumb -2.79768 -28.2582
lclavicle -2.67794e-015 6.95746e-015
lhumerus -35.5518 -6.57684 74.9853
lradius 78.3809
lwrist 246.495
lhand -28.9677 -43.2473
lfingers 7.12502
lthumb -2.32055 -13.2802
rfemur -2.05826 -4.94727 14.7095
rtibia 0
rfoot -7.89238 1.75912
rtoes -9.48495
lfemur -12.517 10.4731 -18.2034
ltibia 18.1924
lfoot -14.8336 -2.05061
ltoes -23.2459
